<svg id="visual" viewBox="0 0 960 540" width="960" height="540" xmlns="http://www.w3.org/2000/svg" xmlns:xlink="http://www.w3.org/1999/xlink" version="1.1"><rect x="0" y="0" width="960" height="540" fill="#001220"></rect><defs><linearGradient id="grad1_0" x1="43.8%" y1="0%" x2="100%" y2="100%"><stop offset="14.444444444444446%" stop-color="#fbae3c" stop-opacity="1"></stop><stop offset="85.55555555555554%" stop-color="#fbae3c" stop-opacity="1"></stop></linearGradient></defs><defs><linearGradient id="grad1_1" x1="43.8%" y1="0%" x2="100%" y2="100%"><stop offset="14.444444444444446%" stop-color="#fbae3c" stop-opacity="1"></stop><stop offset="85.55555555555554%" stop-color="#eb7458" stop-opacity="1"></stop></linearGradient></defs><defs><linearGradient id="grad1_2" x1="43.8%" y1="0%" x2="100%" y2="100%"><stop offset="14.444444444444446%" stop-color="#b84e6c" stop-opacity="1"></stop><stop offset="85.55555555555554%" stop-color="#eb7458" stop-opacity="1"></stop></linearGradient></defs><defs><linearGradient id="grad1_3" x1="43.8%" y1="0%" x2="100%" y2="100%"><stop offset="14.444444444444446%" stop-color="#b84e6c" stop-opacity="1"></stop><stop offset="85.55555555555554%" stop-color="#713c69" stop-opacity="1"></stop></linearGradient></defs><defs><linearGradient id="grad1_4" x1="43.8%" y1="0%" x2="100%" y2="100%"><stop offset="14.444444444444446%" stop-color="#2d2b4c" stop-opacity="1"></stop><stop offset="85.55555555555554%" stop-color="#713c69" stop-opacity="1"></stop></linearGradient></defs><defs><linearGradient id="grad1_5" x1="43.8%" y1="0%" x2="100%" y2="100%"><stop offset="14.444444444444446%" stop-color="#2d2b4c" stop-opacity="1"></stop><stop offset="85.55555555555554%" stop-color="#001220" stop-opacity="1"></stop></linearGradient></defs><defs><linearGradient id="grad2_0" x1="0%" y1="0%" x2="56.3%" y2="100%"><stop offset="14.444444444444446%" stop-color="#fbae3c" stop-opacity="1"></stop><stop offset="85.55555555555554%" stop-color="#fbae3c" stop-opacity="1"></stop></linearGradient></defs><defs><linearGradient id="grad2_1" x1="0%" y1="0%" x2="56.3%" y2="100%"><stop offset="14.444444444444446%" stop-color="#eb7458" stop-opacity="1"></stop><stop offset="85.55555555555554%" stop-color="#fbae3c" stop-opacity="1"></stop></linearGradient></defs><defs><linearGradient id="grad2_2" x1="0%" y1="0%" x2="56.3%" y2="100%"><stop offset="14.444444444444446%" stop-color="#eb7458" stop-opacity="1"></stop><stop offset="85.55555555555554%" stop-color="#b84e6c" stop-opacity="1"></stop></linearGradient></defs><defs><linearGradient id="grad2_3" x1="0%" y1="0%" x2="56.3%" y2="100%"><stop offset="14.444444444444446%" stop-color="#713c69" stop-opacity="1"></stop><stop offset="85.55555555555554%" stop-color="#b84e6c" stop-opacity="1"></stop></linearGradient></defs><defs><linearGradient id="grad2_4" x1="0%" y1="0%" x2="56.3%" y2="100%"><stop offset="14.444444444444446%" stop-color="#713c69" stop-opacity="1"></stop><stop offset="85.55555555555554%" stop-color="#2d2b4c" stop-opacity="1"></stop></linearGradient></defs><defs><linearGradient id="grad2_5" x1="0%" y1="0%" x2="56.3%" y2="100%"><stop offset="14.444444444444446%" stop-color="#001220" stop-opacity="1"></stop><stop offset="85.55555555555554%" stop-color="#2d2b4c" stop-opacity="1"></stop></linearGradient></defs><g transform="translate(960, 0)"><path d="M0 486C-85.4 473.5 -170.9 461.1 -243 420.9C-315.1 380.7 -373.9 312.8 -412.2 238C-450.5 163.2 -468.3 81.6 -486 0L0 0Z" fill="#131f37"></path><path d="M0 405C-71.2 394.6 -142.4 384.2 -202.5 350.7C-262.6 317.2 -311.6 260.6 -343.5 198.3C-375.4 136 -390.2 68 -405 0L0 0Z" fill="#4d345e"></path><path d="M0 324C-57 315.7 -113.9 307.4 -162 280.6C-210.1 253.8 -249.3 208.5 -274.8 158.7C-300.3 108.8 -312.2 54.4 -324 0L0 0Z" fill="#96446e"></path><path d="M0 243C-42.7 236.8 -85.4 230.5 -121.5 210.4C-157.6 190.3 -187 156.4 -206.1 119C-225.3 81.6 -234.1 40.8 -243 0L0 0Z" fill="#d55e64"></path><path d="M0 162C-28.5 157.8 -57 153.7 -81 140.3C-105 126.9 -124.6 104.3 -137.4 79.3C-150.2 54.4 -156.1 27.2 -162 0L0 0Z" fill="#f88f4a"></path><path d="M0 81C-14.2 78.9 -28.5 76.8 -40.5 70.1C-52.5 63.4 -62.3 52.1 -68.7 39.7C-75.1 27.2 -78 13.6 -81 0L0 0Z" fill="#fbae3c"></path></g><g transform="translate(0, 540)"><path d="M0 -486C62.4 -435 124.8 -384 202 -349.9C279.2 -315.7 371.1 -298.5 420.9 -243C470.7 -187.5 478.3 -93.8 486 0L0 0Z" fill="#131f37"></path><path d="M0 -405C52 -362.5 104 -320 168.3 -291.6C232.6 -263.1 309.2 -248.7 350.7 -202.5C392.2 -156.3 398.6 -78.1 405 0L0 0Z" fill="#4d345e"></path><path d="M0 -324C41.6 -290 83.2 -256 134.7 -233.2C186.1 -210.5 247.4 -199 280.6 -162C313.8 -125 318.9 -62.5 324 0L0 0Z" fill="#96446e"></path><path d="M0 -243C31.2 -217.5 62.4 -192 101 -174.9C139.6 -157.9 185.5 -149.2 210.4 -121.5C235.3 -93.8 239.2 -46.9 243 0L0 0Z" fill="#d55e64"></path><path d="M0 -162C20.8 -145 41.6 -128 67.3 -116.6C93.1 -105.2 123.7 -99.5 140.3 -81C156.9 -62.5 159.4 -31.3 162 0L0 0Z" fill="#f88f4a"></path><path d="M0 -81C10.4 -72.5 20.8 -64 33.7 -58.3C46.5 -52.6 61.8 -49.7 70.1 -40.5C78.4 -31.3 79.7 -15.6 81 0L0 0Z" fill="#fbae3c"></path></g></svg>