<svg id="visual" viewBox="0 0 960 540" width="960" height="540" xmlns="http://www.w3.org/2000/svg" xmlns:xlink="http://www.w3.org/1999/xlink" version="1.1"><rect x="0" y="0" width="960" height="540" fill="#FF0066"></rect><g transform="translate(470.8273899762697 269.51851486354917)"><path d="M95.2 -146.9C125.9 -128.4 155.1 -106.3 171.6 -76.5C188.1 -46.7 192.1 -9.3 185.4 25.6C178.8 60.5 161.6 92.8 138.2 119.7C114.8 146.7 85.3 168.3 52.4 177.6C19.5 186.8 -16.7 183.6 -50.7 173.3C-84.7 163 -116.4 145.7 -137.1 119.9C-157.8 94.1 -167.5 59.8 -169.7 26.1C-171.8 -7.6 -166.5 -40.6 -154.2 -71.6C-141.9 -102.6 -122.6 -131.7 -95.7 -151.9C-68.8 -172.1 -34.4 -183.6 -1.1 -181.9C32.3 -180.2 64.5 -165.4 95.2 -146.9" fill="#BB004B"></path></g></svg>